<svg id="visual" viewBox="0 0 900 450" width="900" height="450" xmlns="http://www.w3.org/2000/svg" xmlns:xlink="http://www.w3.org/1999/xlink" version="1.1"><rect x="0" y="0" width="900" height="450" fill="#202731"></rect><path d="M0 287L21.5 294.7C43 302.3 86 317.7 128.8 328.7C171.7 339.7 214.3 346.3 257.2 346.3C300 346.3 343 339.7 385.8 327.8C428.7 316 471.3 299 514.2 294.5C557 290 600 298 642.8 309.8C685.7 321.7 728.3 337.3 771.2 338.2C814 339 857 325 878.5 318L900 311L900 0L878.5 0C857 0 814 0 771.2 0C728.3 0 685.7 0 642.8 0C600 0 557 0 514.2 0C471.3 0 428.7 0 385.8 0C343 0 300 0 257.2 0C214.3 0 171.7 0 128.8 0C86 0 43 0 21.5 0L0 0Z" fill="#ff6f61"></path><path d="M0 277L21.5 269C43 261 86 245 128.8 242.5C171.7 240 214.3 251 257.2 253.5C300 256 343 250 385.8 245.5C428.7 241 471.3 238 514.2 238.8C557 239.7 600 244.3 642.8 243.8C685.7 243.3 728.3 237.7 771.2 233.2C814 228.7 857 225.3 878.5 223.7L900 222L900 0L878.5 0C857 0 814 0 771.2 0C728.3 0 685.7 0 642.8 0C600 0 557 0 514.2 0C471.3 0 428.7 0 385.8 0C343 0 300 0 257.2 0C214.3 0 171.7 0 128.8 0C86 0 43 0 21.5 0L0 0Z" fill="#f76455"></path><path d="M0 191L21.5 191C43 191 86 191 128.8 196C171.7 201 214.3 211 257.2 207C300 203 343 185 385.8 182.8C428.7 180.7 471.3 194.3 514.2 203.7C557 213 600 218 642.8 217.7C685.7 217.3 728.3 211.7 771.2 204.8C814 198 857 190 878.5 186L900 182L900 0L878.5 0C857 0 814 0 771.2 0C728.3 0 685.7 0 642.8 0C600 0 557 0 514.2 0C471.3 0 428.7 0 385.8 0C343 0 300 0 257.2 0C214.3 0 171.7 0 128.8 0C86 0 43 0 21.5 0L0 0Z" fill="#ee5849"></path><path d="M0 128L21.5 131.2C43 134.3 86 140.7 128.8 143.3C171.7 146 214.3 145 257.2 146.3C300 147.7 343 151.3 385.8 153C428.7 154.7 471.3 154.3 514.2 153.3C557 152.3 600 150.7 642.8 150.3C685.7 150 728.3 151 771.2 147.2C814 143.3 857 134.7 878.5 130.3L900 126L900 0L878.5 0C857 0 814 0 771.2 0C728.3 0 685.7 0 642.8 0C600 0 557 0 514.2 0C471.3 0 428.7 0 385.8 0C343 0 300 0 257.2 0C214.3 0 171.7 0 128.8 0C86 0 43 0 21.5 0L0 0Z" fill="#e64c3d"></path><path d="M0 76L21.5 76.7C43 77.3 86 78.7 128.8 79.7C171.7 80.7 214.3 81.3 257.2 78.2C300 75 343 68 385.8 66.7C428.7 65.3 471.3 69.7 514.2 69.2C557 68.7 600 63.3 642.8 65.3C685.7 67.3 728.3 76.7 771.2 76C814 75.3 857 64.7 878.5 59.3L900 54L900 0L878.5 0C857 0 814 0 771.2 0C728.3 0 685.7 0 642.8 0C600 0 557 0 514.2 0C471.3 0 428.7 0 385.8 0C343 0 300 0 257.2 0C214.3 0 171.7 0 128.8 0C86 0 43 0 21.5 0L0 0Z" fill="#dd3f31"></path></svg>