<svg id="visual" viewBox="0 0 900 450" width="900" height="450" xmlns="http://www.w3.org/2000/svg" xmlns:xlink="http://www.w3.org/1999/xlink" version="1.1"><rect x="0" y="0" width="900" height="450" fill="#ff0066"></rect><path d="M0 319L12.5 321.2C25 323.3 50 327.7 75 329.3C100 331 125 330 150 325.7C175 321.3 200 313.7 225 309.7C250 305.7 275 305.3 300 308.8C325 312.3 350 319.7 375 320.5C400 321.3 425 315.7 450 317.7C475 319.7 500 329.3 525 327.7C550 326 575 313 600 310.5C625 308 650 316 675 317C700 318 725 312 750 308.3C775 304.7 800 303.3 825 305.5C850 307.7 875 313.3 887.5 316.2L900 319L900 451L887.5 451C875 451 850 451 825 451C800 451 775 451 750 451C725 451 700 451 675 451C650 451 625 451 600 451C575 451 550 451 525 451C500 451 475 451 450 451C425 451 400 451 375 451C350 451 325 451 300 451C275 451 250 451 225 451C200 451 175 451 150 451C125 451 100 451 75 451C50 451 25 451 12.5 451L0 451Z" fill="#ff0066"></path><path d="M0 337L12.5 339.7C25 342.3 50 347.7 75 352.8C100 358 125 363 150 361.7C175 360.3 200 352.7 225 350.5C250 348.3 275 351.7 300 352C325 352.3 350 349.7 375 345.8C400 342 425 337 450 340C475 343 500 354 525 360.2C550 366.3 575 367.7 600 366C625 364.3 650 359.7 675 356.3C700 353 725 351 750 347.5C775 344 800 339 825 341.3C850 343.7 875 353.3 887.5 358.2L900 363L900 451L887.5 451C875 451 850 451 825 451C800 451 775 451 750 451C725 451 700 451 675 451C650 451 625 451 600 451C575 451 550 451 525 451C500 451 475 451 450 451C425 451 400 451 375 451C350 451 325 451 300 451C275 451 250 451 225 451C200 451 175 451 150 451C125 451 100 451 75 451C50 451 25 451 12.5 451L0 451Z" fill="#a53387"></path><path d="M0 395L12.5 391.7C25 388.3 50 381.7 75 380.8C100 380 125 385 150 385.5C175 386 200 382 225 377.7C250 373.3 275 368.7 300 370.5C325 372.3 350 380.7 375 385.8C400 391 425 393 450 393.7C475 394.3 500 393.7 525 391.2C550 388.7 575 384.3 600 380.5C625 376.7 650 373.3 675 374C700 374.7 725 379.3 750 383.8C775 388.3 800 392.7 825 393.8C850 395 875 393 887.5 392L900 391L900 451L887.5 451C875 451 850 451 825 451C800 451 775 451 750 451C725 451 700 451 675 451C650 451 625 451 600 451C575 451 550 451 525 451C500 451 475 451 450 451C425 451 400 451 375 451C350 451 325 451 300 451C275 451 250 451 225 451C200 451 175 451 150 451C125 451 100 451 75 451C50 451 25 451 12.5 451L0 451Z" fill="#483b6e"></path><path d="M0 428L12.5 428.3C25 428.7 50 429.3 75 428.8C100 428.3 125 426.7 150 422.7C175 418.7 200 412.3 225 412.7C250 413 275 420 300 421C325 422 350 417 375 412.7C400 408.3 425 404.7 450 403.8C475 403 500 405 525 408.7C550 412.3 575 417.7 600 418.3C625 419 650 415 675 410.8C700 406.7 725 402.3 750 400.2C775 398 800 398 825 402C850 406 875 414 887.5 418L900 422L900 451L887.5 451C875 451 850 451 825 451C800 451 775 451 750 451C725 451 700 451 675 451C650 451 625 451 600 451C575 451 550 451 525 451C500 451 475 451 450 451C425 451 400 451 375 451C350 451 325 451 300 451C275 451 250 451 225 451C200 451 175 451 150 451C125 451 100 451 75 451C50 451 25 451 12.5 451L0 451Z" fill="#202731"></path></svg>